<mxfile host="app.diagrams.net" modified="2022-05-09T17:00:12.046Z" agent="5.0 (Windows NT 10.0; Win64; x64) AppleWebKit/537.36 (KHTML, like Gecko) Chrome/101.0.4951.54 Safari/537.36" etag="qj3kjOdQoMXBMCMf92Wz" version="17.4.5" type="github">
  <diagram id="KWf8vIWqkype3_FUtoyt" name="Page-1">
    <mxGraphModel dx="1422" dy="698" grid="1" gridSize="10" guides="1" tooltips="1" connect="1" arrows="1" fold="1" page="1" pageScale="1" pageWidth="827" pageHeight="1169" math="0" shadow="0">
      <root>
        <mxCell id="0" />
        <mxCell id="1" parent="0" />
        <mxCell id="UImagTpzc8pg3NdQ6vDc-1" value="客户端A" style="rounded=0;whiteSpace=wrap;html=1;" parent="1" vertex="1">
          <mxGeometry x="40" y="70" width="120" height="30" as="geometry" />
        </mxCell>
        <mxCell id="UImagTpzc8pg3NdQ6vDc-2" value="STUN" style="rounded=0;whiteSpace=wrap;html=1;" parent="1" vertex="1">
          <mxGeometry x="240" y="70" width="120" height="30" as="geometry" />
        </mxCell>
        <mxCell id="UImagTpzc8pg3NdQ6vDc-3" value="信令服务器" style="rounded=0;whiteSpace=wrap;html=1;" parent="1" vertex="1">
          <mxGeometry x="440" y="70" width="120" height="30" as="geometry" />
        </mxCell>
        <mxCell id="UImagTpzc8pg3NdQ6vDc-4" value="客户端B" style="rounded=0;whiteSpace=wrap;html=1;" parent="1" vertex="1">
          <mxGeometry x="640" y="70" width="120" height="30" as="geometry" />
        </mxCell>
        <mxCell id="UImagTpzc8pg3NdQ6vDc-6" value="" style="endArrow=none;html=1;rounded=0;" parent="1" edge="1">
          <mxGeometry width="50" height="50" relative="1" as="geometry">
            <mxPoint x="100" y="370" as="sourcePoint" />
            <mxPoint x="100" y="100" as="targetPoint" />
          </mxGeometry>
        </mxCell>
        <mxCell id="UImagTpzc8pg3NdQ6vDc-7" value="" style="endArrow=none;html=1;rounded=0;" parent="1" edge="1">
          <mxGeometry width="50" height="50" relative="1" as="geometry">
            <mxPoint x="300" y="370" as="sourcePoint" />
            <mxPoint x="299.5" y="100" as="targetPoint" />
            <Array as="points">
              <mxPoint x="299.5" y="370" />
            </Array>
          </mxGeometry>
        </mxCell>
        <mxCell id="UImagTpzc8pg3NdQ6vDc-8" value="" style="endArrow=none;html=1;rounded=0;" parent="1" edge="1">
          <mxGeometry width="50" height="50" relative="1" as="geometry">
            <mxPoint x="500" y="370" as="sourcePoint" />
            <mxPoint x="499.5" y="100" as="targetPoint" />
            <Array as="points">
              <mxPoint x="499.5" y="370" />
            </Array>
          </mxGeometry>
        </mxCell>
        <mxCell id="UImagTpzc8pg3NdQ6vDc-9" value="" style="endArrow=none;html=1;rounded=0;" parent="1" edge="1">
          <mxGeometry width="50" height="50" relative="1" as="geometry">
            <mxPoint x="700" y="370" as="sourcePoint" />
            <mxPoint x="699.5" y="100" as="targetPoint" />
            <Array as="points">
              <mxPoint x="699.5" y="370" />
            </Array>
          </mxGeometry>
        </mxCell>
        <mxCell id="UImagTpzc8pg3NdQ6vDc-10" value="" style="endArrow=classic;html=1;rounded=0;" parent="1" edge="1">
          <mxGeometry width="50" height="50" relative="1" as="geometry">
            <mxPoint x="100" y="119" as="sourcePoint" />
            <mxPoint x="300" y="119" as="targetPoint" />
          </mxGeometry>
        </mxCell>
        <mxCell id="UImagTpzc8pg3NdQ6vDc-11" value="我的网络地址？" style="edgeLabel;html=1;align=center;verticalAlign=middle;resizable=0;points=[];fontSize=16;" parent="UImagTpzc8pg3NdQ6vDc-10" vertex="1" connectable="0">
          <mxGeometry x="0.15" y="-2" relative="1" as="geometry">
            <mxPoint x="-14" y="-3" as="offset" />
          </mxGeometry>
        </mxCell>
        <mxCell id="UImagTpzc8pg3NdQ6vDc-12" value="" style="endArrow=classic;html=1;rounded=0;" parent="1" edge="1">
          <mxGeometry width="50" height="50" relative="1" as="geometry">
            <mxPoint x="300" y="151" as="sourcePoint" />
            <mxPoint x="100" y="151" as="targetPoint" />
          </mxGeometry>
        </mxCell>
        <mxCell id="UImagTpzc8pg3NdQ6vDc-13" value="123.123.34.34:3453" style="edgeLabel;html=1;align=center;verticalAlign=middle;resizable=0;points=[];fontSize=16;" parent="UImagTpzc8pg3NdQ6vDc-12" vertex="1" connectable="0">
          <mxGeometry x="-0.17" relative="1" as="geometry">
            <mxPoint x="-18" as="offset" />
          </mxGeometry>
        </mxCell>
        <mxCell id="UImagTpzc8pg3NdQ6vDc-14" value="" style="endArrow=classic;html=1;rounded=0;" parent="1" edge="1">
          <mxGeometry width="50" height="50" relative="1" as="geometry">
            <mxPoint x="100" y="179" as="sourcePoint" />
            <mxPoint x="500" y="179" as="targetPoint" />
          </mxGeometry>
        </mxCell>
        <mxCell id="UImagTpzc8pg3NdQ6vDc-15" value="提案SDP" style="edgeLabel;html=1;align=center;verticalAlign=middle;resizable=0;points=[];fontStyle=0;fontSize=16;" parent="UImagTpzc8pg3NdQ6vDc-14" vertex="1" connectable="0">
          <mxGeometry x="0.14" y="-2" relative="1" as="geometry">
            <mxPoint x="-29" y="-2" as="offset" />
          </mxGeometry>
        </mxCell>
        <mxCell id="UImagTpzc8pg3NdQ6vDc-16" value="" style="endArrow=classic;html=1;rounded=0;" parent="1" edge="1">
          <mxGeometry width="50" height="50" relative="1" as="geometry">
            <mxPoint x="500" y="179" as="sourcePoint" />
            <mxPoint x="700" y="179" as="targetPoint" />
          </mxGeometry>
        </mxCell>
        <mxCell id="UImagTpzc8pg3NdQ6vDc-17" value="提案SDP" style="edgeLabel;html=1;align=center;verticalAlign=middle;resizable=0;points=[];fontStyle=0;fontSize=16;" parent="UImagTpzc8pg3NdQ6vDc-16" vertex="1" connectable="0">
          <mxGeometry x="0.14" y="-2" relative="1" as="geometry">
            <mxPoint x="-14" y="-2" as="offset" />
          </mxGeometry>
        </mxCell>
        <mxCell id="UImagTpzc8pg3NdQ6vDc-18" value="" style="endArrow=classic;html=1;rounded=0;" parent="1" edge="1">
          <mxGeometry width="50" height="50" relative="1" as="geometry">
            <mxPoint x="700" y="208" as="sourcePoint" />
            <mxPoint x="500" y="208" as="targetPoint" />
          </mxGeometry>
        </mxCell>
        <mxCell id="UImagTpzc8pg3NdQ6vDc-19" value="应答SDP" style="edgeLabel;html=1;align=center;verticalAlign=middle;resizable=0;points=[];fontStyle=0;fontSize=16;" parent="UImagTpzc8pg3NdQ6vDc-18" vertex="1" connectable="0">
          <mxGeometry x="0.14" y="-2" relative="1" as="geometry">
            <mxPoint x="16" as="offset" />
          </mxGeometry>
        </mxCell>
        <mxCell id="UImagTpzc8pg3NdQ6vDc-20" value="" style="endArrow=classic;html=1;rounded=0;" parent="1" edge="1">
          <mxGeometry width="50" height="50" relative="1" as="geometry">
            <mxPoint x="500" y="208" as="sourcePoint" />
            <mxPoint x="100" y="208" as="targetPoint" />
          </mxGeometry>
        </mxCell>
        <mxCell id="UImagTpzc8pg3NdQ6vDc-21" value="应答SDP" style="edgeLabel;html=1;align=center;verticalAlign=middle;resizable=0;points=[];fontStyle=0;fontSize=16;" parent="UImagTpzc8pg3NdQ6vDc-20" vertex="1" connectable="0">
          <mxGeometry x="0.14" y="-2" relative="1" as="geometry">
            <mxPoint x="28" as="offset" />
          </mxGeometry>
        </mxCell>
        <mxCell id="UImagTpzc8pg3NdQ6vDc-22" value="" style="endArrow=classic;html=1;rounded=0;" parent="1" edge="1">
          <mxGeometry width="50" height="50" relative="1" as="geometry">
            <mxPoint x="100" y="233" as="sourcePoint" />
            <mxPoint x="500" y="233" as="targetPoint" />
          </mxGeometry>
        </mxCell>
        <mxCell id="UImagTpzc8pg3NdQ6vDc-23" value="ICE候选（A）" style="edgeLabel;html=1;align=center;verticalAlign=middle;resizable=0;points=[];fontStyle=0;fontSize=16;" parent="UImagTpzc8pg3NdQ6vDc-22" vertex="1" connectable="0">
          <mxGeometry x="0.14" y="-2" relative="1" as="geometry">
            <mxPoint x="-22" y="-2" as="offset" />
          </mxGeometry>
        </mxCell>
        <mxCell id="UImagTpzc8pg3NdQ6vDc-24" value="" style="endArrow=classic;html=1;rounded=0;" parent="1" edge="1">
          <mxGeometry width="50" height="50" relative="1" as="geometry">
            <mxPoint x="500" y="233" as="sourcePoint" />
            <mxPoint x="700" y="233" as="targetPoint" />
          </mxGeometry>
        </mxCell>
        <mxCell id="UImagTpzc8pg3NdQ6vDc-25" value="ICE候选（A）" style="edgeLabel;html=1;align=center;verticalAlign=middle;resizable=0;points=[];fontStyle=0;fontSize=16;" parent="UImagTpzc8pg3NdQ6vDc-24" vertex="1" connectable="0">
          <mxGeometry x="0.14" y="-2" relative="1" as="geometry">
            <mxPoint x="-7" y="-2" as="offset" />
          </mxGeometry>
        </mxCell>
        <mxCell id="UImagTpzc8pg3NdQ6vDc-26" value="" style="endArrow=classic;html=1;rounded=0;" parent="1" edge="1">
          <mxGeometry width="50" height="50" relative="1" as="geometry">
            <mxPoint x="500" y="264" as="sourcePoint" />
            <mxPoint x="100" y="264" as="targetPoint" />
          </mxGeometry>
        </mxCell>
        <mxCell id="UImagTpzc8pg3NdQ6vDc-27" value="ICE候选（B）" style="edgeLabel;html=1;align=center;verticalAlign=middle;resizable=0;points=[];fontStyle=0;fontSize=16;" parent="UImagTpzc8pg3NdQ6vDc-26" vertex="1" connectable="0">
          <mxGeometry x="0.14" y="-2" relative="1" as="geometry">
            <mxPoint x="35" as="offset" />
          </mxGeometry>
        </mxCell>
        <mxCell id="UImagTpzc8pg3NdQ6vDc-28" value="" style="endArrow=classic;html=1;rounded=0;" parent="1" edge="1">
          <mxGeometry width="50" height="50" relative="1" as="geometry">
            <mxPoint x="700" y="264" as="sourcePoint" />
            <mxPoint x="500" y="264" as="targetPoint" />
          </mxGeometry>
        </mxCell>
        <mxCell id="UImagTpzc8pg3NdQ6vDc-29" value="ICE候选（B）" style="edgeLabel;html=1;align=center;verticalAlign=middle;resizable=0;points=[];fontStyle=0;fontSize=16;" parent="UImagTpzc8pg3NdQ6vDc-28" vertex="1" connectable="0">
          <mxGeometry x="0.14" y="-2" relative="1" as="geometry">
            <mxPoint x="21" as="offset" />
          </mxGeometry>
        </mxCell>
        <mxCell id="UImagTpzc8pg3NdQ6vDc-30" value="" style="endArrow=classic;html=1;rounded=0;fontSize=16;" parent="1" edge="1">
          <mxGeometry width="50" height="50" relative="1" as="geometry">
            <mxPoint x="700" y="292" as="sourcePoint" />
            <mxPoint x="300" y="292" as="targetPoint" />
          </mxGeometry>
        </mxCell>
        <mxCell id="UImagTpzc8pg3NdQ6vDc-31" value="我的网络地址？" style="edgeLabel;html=1;align=center;verticalAlign=middle;resizable=0;points=[];fontSize=16;" parent="UImagTpzc8pg3NdQ6vDc-30" vertex="1" connectable="0">
          <mxGeometry x="-0.13" y="2" relative="1" as="geometry">
            <mxPoint x="-20" y="-3" as="offset" />
          </mxGeometry>
        </mxCell>
        <mxCell id="UImagTpzc8pg3NdQ6vDc-32" value="" style="endArrow=classic;html=1;rounded=0;fontSize=16;" parent="1" edge="1">
          <mxGeometry width="50" height="50" relative="1" as="geometry">
            <mxPoint x="300" y="320" as="sourcePoint" />
            <mxPoint x="700" y="320" as="targetPoint" />
          </mxGeometry>
        </mxCell>
        <mxCell id="UImagTpzc8pg3NdQ6vDc-33" value="222.34.56.2:6435" style="edgeLabel;html=1;align=center;verticalAlign=middle;resizable=0;points=[];fontSize=16;" parent="UImagTpzc8pg3NdQ6vDc-32" vertex="1" connectable="0">
          <mxGeometry x="-0.13" y="2" relative="1" as="geometry">
            <mxPoint x="24" y="1" as="offset" />
          </mxGeometry>
        </mxCell>
      </root>
    </mxGraphModel>
  </diagram>
</mxfile>
